#!OML:ASF H:\BabyWalks\Project 1\Capture day 1\Session 1\baby.ASF
:FULLY-SPECIFIED
:DEGREES
694
root 35.1357 17.7582 -5.48256 -200.466 81.1178 -206.558
lowerback 18.2292 -1.67872 1.06569
upperback 5.09957 -1.56007 1.68675
thorax -4.70727 -0.626314 1.51459
lowerneck -0.570072 -2.37911 3.32795
upperneck -8.59756 -3.5183 -7.37113
head -2.89722 -1.57521 -2.93655
rclavicle -3.49861e-014 4.53229e-014
rhumerus -45.2405 9.149 -81.3949
rradius 68.4268
rwrist -13.6273
rhand -13.7582 -14.9009
rfingers 7.12502
rthumb 12.3623 -44.5154
lclavicle -3.49861e-014 4.53229e-014
lhumerus -46.1022 -2.89074 80.7372
lradius 48.8168
lwrist -3.37553
lhand 9.72365 11.4882
lfingers 7.12502
lthumb 34.8642 38.0759
rfemur -24.9679 5.33752 18.0344
rtibia 34.9925
rfoot -12.8898 -3.39869
rtoes 6.8453
lfemur 10.3351 -0.00100833 -16.5034
ltibia 11.6309
lfoot -12.4442 -0.915761
ltoes -21.0642
695
root 35.1832 17.7588 -5.48262 -199.683 81.024 -205.956
lowerback 18.1567 -1.73661 1.21072
upperback 5.08134 -1.60492 1.78603
thorax -4.68886 -0.649029 1.54593
lowerneck -0.5789 -2.38867 3.30915
upperneck -8.70722 -3.53631 -7.39089
head -2.9342 -1.58008 -2.94074
rclavicle 1.59028e-014 -1.59028e-014
rhumerus -45.2222 9.24854 -81.2971
rradius 68.6675
rwrist -13.8067
rhand -13.2137 -14.734
rfingers 7.12502
rthumb 12.8872 -44.3161
lclavicle 1.59028e-014 -1.59028e-014
lhumerus -46.3262 -2.99633 80.7187
lradius 49.0642
lwrist -2.86916
lhand 9.67486 11.6541
lfingers 7.12502
lthumb 34.8179 38.2525
rfemur -24.9909 5.30958 18.0868
rtibia 35.0152
rfoot -13.095 -3.43381
rtoes 6.99267
lfemur 10.8064 -0.215144 -16.5173
ltibia 10.5838
lfoot -12.0535 -0.600941
ltoes -21.0834
696
root 35.2287 17.7576 -5.48179 -198.725 80.9091 -205.153
lowerback 18.1062 -1.7939 1.3622
upperback 5.07534 -1.64522 1.8983
thorax -4.66887 -0.668822 1.58673
lowerneck -0.603827 -2.40294 3.30757
upperneck -8.7928 -3.5607 -7.42707
head -2.96144 -1.58894 -2.95352
rclavicle 2.26615e-014 3.89618e-014
rhumerus -45.1955 9.32802 -81.1807
rradius 68.8218
rwrist -13.9532
rhand -12.7487 -14.6456
rfingers 7.12502
rthumb 13.3354 -44.1989
lclavicle 2.26615e-014 3.89618e-014
lhumerus -46.4936 -3.11046 80.7042
lradius 49.321
lwrist -2.42028
lhand 9.57435 11.7622
lfingers 7.12502
lthumb 34.7225 38.3826
rfemur -24.9806 5.2961 18.163
rtibia 35.0199
rfoot -13.3037 -3.50017
rtoes 7.13747
lfemur 11.276 -0.347471 -16.4743
ltibia 9.57165
lfoot -11.6956 -0.395863
ltoes -21.173
697
root 35.2724 17.7549 -5.48018 -197.613 80.7798 -204.168
lowerback 18.0731 -1.84933 1.52938
upperback 5.08047 -1.67822 2.0181
thorax -4.64662 -0.684446 1.6253
lowerneck -0.632522 -2.42671 3.30602
upperneck -8.86367 -3.59715 -7.45914
head -2.98364 -1.60434 -2.96441
rclavicle -3.97569e-016 -2.78299e-014
rhumerus -45.164 9.38653 -81.0549
rradius 68.8908
rwrist -14.0596
rhand -12.3718 -14.6451
rfingers 7.12502
rthumb 13.6987 -44.1742
lclavicle -3.97569e-016 -2.78299e-014
lhumerus -46.6029 -3.23144 80.6856
lradius 49.5847
lwrist -2.0424
lhand 9.43741 11.8169
lfingers 7.12502
lthumb 34.5925 38.4672
rfemur -24.94 5.29578 18.2686
rtibia 35.0097
rfoot -13.5143 -3.59887
rtoes 7.26466
lfemur 11.7416 -0.504678 -16.3934
ltibia 8.59918
lfoot -11.36 -0.188532
ltoes -21.3042
698
root 35.3144 17.7512 -5.47765 -196.366 80.6423 -203.031
lowerback 18.0552 -1.90002 1.70746
upperback 5.09241 -1.70116 2.14703
thorax -4.62533 -0.694665 1.66552
lowerneck -0.660049 -2.45384 3.3129
upperneck -8.91802 -3.63793 -7.4981
head -3.0012 -1.62234 -2.97899
rclavicle -2.66371e-014 1.03368e-014
rhumerus -45.1318 9.42863 -80.921
rradius 68.8792
rwrist -14.1156
rhand -12.0858 -14.7372
rfingers 7.12502
rthumb 13.9743 -44.2475
lclavicle -2.66371e-014 1.03368e-014
lhumerus -46.6566 -3.35175 80.6638
lradius 49.865
lwrist -1.73372
lhand 9.29028 11.8644
lfingers 7.12502
lthumb 34.4529 38.5465
rfemur -24.8782 5.31939 18.4047
rtibia 34.9877
rfoot -13.7256 -3.73746
rtoes 7.37663
lfemur 12.1872 -0.676816 -16.2741
ltibia 7.68661
lfoot -11.0561 0.0174047
ltoes -21.4763
699
root 35.3546 17.7464 -5.47427 -195.039 80.5005 -201.798
lowerback 18.0527 -1.94464 1.8929
upperback 5.10892 -1.71336 2.28013
thorax -4.60757 -0.699217 1.70411
lowerneck -0.686997 -2.48655 3.32602
upperneck -8.96084 -3.68585 -7.53754
head -3.01561 -1.64438 -2.99458
rclavicle 4.37326e-014 -3.97569e-015
rhumerus -45.1005 9.45519 -80.7874
rradius 68.7888
rwrist -14.1182
rhand -11.8984 -14.8963
rfingers 7.12502
rthumb 14.1549 -44.3941
lclavicle 4.37326e-014 -3.97569e-015
lhumerus -46.6575 -3.46674 80.634
lradius 50.1614
lwrist -1.4975
lhand 9.12281 11.8929
lfingers 7.12502
lthumb 34.2939 38.6109
rfemur -24.8028 5.36275 18.5668
rtibia 34.9578
rfoot -13.9325 -3.90978
rtoes 7.45773
lfemur 12.5998 -0.858237 -16.1239
ltibia 6.85375
lfoot -10.7922 0.220243
ltoes -21.6721
700
root 35.3933 17.7406 -5.47028 -193.654 80.358 -200.499
lowerback 18.0566 -1.98323 2.08798
upperback 5.12775 -1.71525 2.4137
thorax -4.59113 -0.698477 1.73571
lowerneck -0.726071 -2.5231 3.34943
upperneck -8.98321 -3.73823 -7.57824
head -3.02144 -1.66968 -3.01227
rclavicle 2.70347e-014 -1.51076e-014
rhumerus -45.0721 9.46381 -80.6567
rradius 68.6203
rwrist -14.0503
rhand -11.8023 -15.1275
rfingers 7.12502
rthumb 14.2475 -44.6188
lclavicle 2.70347e-014 -1.51076e-014
lhumerus -46.6103 -3.57159 80.5925
lradius 50.4753
lwrist -1.33173
lhand 8.92639 11.8968
lfingers 7.12502
lthumb 34.1074 38.6567
rfemur -24.7238 5.41924 18.7531
rtibia 34.9269
rfoot -14.1345 -4.10831
rtoes 7.49052
lfemur 12.9581 -1.04219 -15.9461
ltibia 6.13372
lfoot -10.5832 0.414686
ltoes -21.8773
701
root 35.4301 17.7341 -5.46561 -192.215 80.2185 -199.143
lowerback 18.0649 -2.01346 2.2951
upperback 5.14161 -1.70388 2.54597
thorax -4.58289 -0.691274 1.75658
lowerneck -0.74273 -2.56807 3.37027
upperneck -8.99757 -3.80093 -7.60495
head -3.02888 -1.70044 -3.02411
rclavicle 5.96354e-015 -2.54444e-014
rhumerus -45.0591 9.44898 -80.5314
rradius 68.3769
rwrist -13.9133
rhand -11.8059 -15.3315
rfingers 7.12502
rthumb 14.244 -44.8231
lclavicle 5.96354e-015 -2.54444e-014
lhumerus -46.5255 -3.66731 80.5386
lradius 50.8046
lwrist -1.22926
lhand 8.70322 11.8701
lfingers 7.12502
lthumb 33.8954 38.677
rfemur -24.6535 5.49034 18.9634
rtibia 34.9034
rfoot -14.3307 -4.3282
rtoes 7.5098
lfemur 13.243 -1.22356 -15.7402
ltibia 5.55393
lfoot -10.4441 0.596445
ltoes -22.0729
702
root 35.465 17.7268 -5.4604 -190.754 80.081 -197.765
lowerback 18.0771 -2.0381 2.5076
upperback 5.15415 -1.68412 2.67457
thorax -4.57845 -0.679897 1.76892
lowerneck -0.758179 -2.61379 3.40078
upperneck -9.00695 -3.86404 -7.6258
head -3.035 -1.73212 -3.03563
rclavicle 1.19271e-014 2.22639e-014
rhumerus -45.0446 9.4107 -80.4118
rradius 68.0568
rwrist -13.6969
rhand -11.8728 -15.5493
rfingers 7.12502
rthumb 14.1796 -45.0453
lclavicle 1.19271e-014 2.22639e-014
lhumerus -46.3958 -3.73922 80.4675
lradius 51.1454
lwrist -1.18345
lhand 8.43438 11.811
lfingers 7.12502
lthumb 33.6399 38.674
rfemur -24.6 5.56574 19.1912
rtibia 34.896
rfoot -14.5181 -4.55542
rtoes 7.51199
lfemur 13.4381 -1.401 -15.5129
ltibia 5.14201
lfoot -10.3889 0.762469
ltoes -22.2465
703
root 35.4982 17.7191 -5.45479 -189.332 79.9432 -196.43
lowerback 18.0853 -2.0577 2.7162
upperback 5.16463 -1.65937 2.79394
thorax -4.57423 -0.666154 1.77255
lowerneck -0.769726 -2.66384 3.43888
upperneck -9.00855 -3.93212 -7.63701
head -3.03944 -1.76708 -3.04496
rclavicle 3.18055e-014 -2.06736e-014
rhumerus -45.027 9.34943 -80.3025
rradius 67.6609
rwrist -13.4107
rhand -11.9986 -15.7594
rfingers 7.12502
rthumb 14.0584 -45.2639
lclavicle 3.18055e-014 -2.06736e-014
lhumerus -46.2281 -3.78837 80.377
lradius 51.5041
lwrist -1.17194
lhand 8.12164 11.7231
lfingers 7.12502
lthumb 33.3427 38.6504
rfemur -24.5708 5.64638 19.4212
rtibia 34.9109
rfoot -14.6978 -4.78737
rtoes 7.50162
lfemur 13.5389 -1.57352 -15.2778
ltibia 4.89884
lfoot -10.4167 0.908542
ltoes -22.3914
704
root 35.5292 17.711 -5.44882 -188.002 79.8041 -195.193
lowerback 18.0964 -2.07246 2.91119
upperback 5.17115 -1.63161 2.9013
thorax -4.57571 -0.651073 1.7707
lowerneck -0.781591 -2.71456 3.48181
upperneck -9.0026 -3.99989 -7.6332
head -3.04088 -1.80286 -3.04987
rclavicle 3.97569e-014 2.8625e-014
rhumerus -44.9997 9.26561 -80.2007
rradius 67.185
rwrist -13.051
rhand -12.1603 -15.9474
rfingers 7.12502
rthumb 13.9026 -45.4627
lclavicle 3.97569e-014 2.8625e-014
lhumerus -46.0264 -3.8099 80.2667
lradius 51.8809
lwrist -1.17977
lhand 7.76066 11.6133
lfingers 7.12502
lthumb 32.9994 38.6136
rfemur -24.5709 5.72744 19.6411
rtibia 34.9542
rfoot -14.8703 -5.01431
rtoes 7.48073
lfemur 13.555 -1.74062 -15.0463
ltibia 4.80077
lfoot -10.5146 1.03176
ltoes -22.5071
705
root 35.5584 17.7029 -5.44257 -186.792 79.6622 -194.082
lowerback 18.1063 -2.08327 3.08914
upperback 5.1751 -1.60312 2.99375
thorax -4.57913 -0.635814 1.76252
lowerneck -0.779328 -2.76705 3.51768
upperneck -9.00199 -4.06878 -7.60434
head -3.04578 -1.83952 -3.04461
rclavicle -3.18055e-015 -4.77083e-015
rhumerus -44.9589 9.15754 -80.1065
rradius 66.6297
rwrist -12.6233
rhand -12.347 -16.1058
rfingers 7.12502
rthumb 13.7226 -45.6333
lclavicle -3.18055e-015 -4.77083e-015
lhumerus -45.7956 -3.80418 80.137
lradius 52.2758
lwrist -1.19579
lhand 7.34659 11.4889
lfingers 7.12502
lthumb 32.6055 38.5715
rfemur -24.6048 5.80682 19.8426
rtibia 35.0295
rfoot -15.026 -5.23539
rtoes 7.43651
lfemur 13.5148 -1.90367 -14.8263
ltibia 4.79215
lfoot -10.6565 1.13055
ltoes -22.5693
706
root 35.5855 17.6948 -5.43608 -185.757 79.5166 -193.15
lowerback 18.1193 -2.09012 3.23387
upperback 5.17591 -1.57658 3.07189
thorax -4.58701 -0.6217 1.75854
lowerneck -0.786939 -2.8172 3.5588
upperneck -8.98568 -4.13345 -7.56767
head -3.04308 -1.87512 -3.03762
rclavicle -3.4191e-014 2.06736e-014
rhumerus -44.9011 9.03559 -80.0146
rradius 65.9981
rwrist -12.1292
rhand -12.5482 -16.2323
rfingers 7.12502
rthumb 13.5287 -45.7728
lclavicle -3.4191e-014 2.06736e-014
lhumerus -45.542 -3.76649 79.9931
lradius 52.6899
lwrist -1.20226
lhand 6.88054 11.3621
lfingers 7.12502
lthumb 32.162 38.5354
rfemur -24.671 5.88233 20.0123
rtibia 35.1399
rfoot -15.1734 -5.4425
rtoes 7.38883
lfemur 13.44 -2.06317 -14.6307
ltibia 4.8295
lfoot -10.8141 1.20259
ltoes -22.6198
707
root 35.6107 17.6866 -5.42949 -184.942 79.3674 -192.44
lowerback 18.1349 -2.09392 3.34055
upperback 5.17614 -1.55446 3.13165
thorax -4.59625 -0.609916 1.75756
lowerneck -0.794395 -2.8634 3.60505
upperneck -8.96062 -4.19206 -7.52428
head -3.03692 -1.9084 -3.02931
rclavicle -7.95139e-015 1.11319e-014
rhumerus -44.8237 8.90347 -79.9253
rradius 65.2929
rwrist -11.5771
rhand -12.7476 -16.335
rfingers 7.12502
rthumb 13.3365 -45.8882
lclavicle -7.95139e-015 1.11319e-014
lhumerus -45.2741 -3.69848 79.8358
lradius 53.1258
lwrist -1.19087
lhand 6.35032 11.2236
lfingers 7.12502
lthumb 31.6571 38.4978
rfemur -24.7636 5.94647 20.141
rtibia 35.2856
rfoot -15.3173 -5.63174
rtoes 7.32519
lfemur 13.359 -2.21992 -14.471
ltibia 4.86753
lfoot -10.9666 1.24886
ltoes -22.6481
708
root 35.6341 17.6782 -5.42296 -184.365 79.2112 -191.966
lowerback 18.1541 -2.09562 3.40466
upperback 5.17578 -1.53876 3.17346
thorax -4.60739 -0.601432 1.76307
lowerneck -0.806998 -2.90643 3.64928
upperneck -8.922 -4.24557 -7.47436
head -3.02452 -1.93969 -3.01841
rclavicle 3.97569e-014 6.20208e-014
rhumerus -44.7278 8.76247 -79.8355
rradius 64.5207
rwrist -10.9654
rhand -12.9383 -16.4224
rfingers 7.12502
rthumb 13.1527 -45.9875
lclavicle 3.97569e-014 6.20208e-014
lhumerus -44.999 -3.60384 79.6721
lradius 53.5856
lwrist -1.15427
lhand 5.76254 11.0848
lfingers 7.12502
lthumb 31.097 38.4677
rfemur -24.8771 5.98755 20.2238
rtibia 35.4675
rfoot -15.4651 -5.79619
rtoes 7.25861
lfemur 13.2878 -2.37858 -14.3544
ltibia 4.87989
lfoot -11.1016 1.27394
ltoes -22.6538
